# Blender v2.78 (sub 0) OBJ File: 'asteroidtiny.blend'
# www.blender.org
mtllib atiny.mtl
o Icosphere
v 0.00 -2.00 0.00
v 0.60 0.042442 1.05
v -0.55 -0.89 1.70
v -1.78 -0.89 0.00
v -0.55 -0.89 -1.70
v 1.07 0.226142 -1.05
v 0.55 0.894430 1.70
v -1.99 1.35 1.05
v -0.05 2.49 -0.46
v 0.55 0.894430 -1.70
v 1.88 2.135139 0.30
v 1.80 2.569471 0.00
vn 0.27 -0.96 0.02
vn 0.80 -0.42 0.41
vn -0.07 -0.52 0.85
vn 0.85 -0.33 -0.40
vn -0.90 -0.39 -0.13
vn -0.24 -0.38 -0.89
vn 0.92 0.1663 0.34
vn 0.38 0.1557 0.91
vn -0.83 0.45 0.30
vn -0.33 0.88 -0.33
vn 0.18 0.2123 -0.96
vn 0.65 0.7507 -0.05
usemtl Material.001
s 1
f 1//1 2//2 3//3
f 2//2 1//1 6//4
f 1//1 3//3 4//5
f 1//1 4//5 5//6
f 1//1 5//6 6//4
f 2//2 6//4 11//7
f 3//3 2//2 7//8
f 4//5 3//3 8//9
f 5//6 4//5 9//10
f 6//4 5//6 10//11
f 2//2 11//7 7//8
f 3//3 7//8 8//9
f 4//5 8//9 9//10
f 5//6 9//10 10//11
f 6//4 10//11 11//7
f 7//8 11//7 12//12
f 8//9 7//8 12//12
f 9//10 8//9 12//12
f 10//11 9//10 12//12
f 11//7 10//11 12//12
